<svg width="108" height="460" viewBox="0 0 108 460" fill="none" xmlns="http://www.w3.org/2000/svg">
<path d="M67 415C67 412.239 69.2386 410 72 410C74.7614 410 77 412.239 77 415C77 417.761 74.7614 420 72 420C69.2386 420 67 417.761 67 415Z" fill="#FCA311"/>
<path d="M93 155.5C93 151.358 96.3579 148 100.5 148C104.642 148 108 151.358 108 155.5C108 159.642 104.642 163 100.5 163C96.3579 163 93 159.642 93 155.5Z" fill="#FCA311"/>
<path d="M5 240C5 237.239 7.23858 235 10 235C12.7614 235 15 237.239 15 240C15 242.761 12.7614 245 10 245C7.23858 245 5 242.761 5 240Z" fill="#FCA311"/>
<path d="M0 2.5C0 1.11929 1.11929 0 2.5 0C3.88071 0 5 1.11929 5 2.5C5 3.88071 3.88071 5 2.5 5C1.11929 5 0 3.88071 0 2.5Z" fill="#FCA311"/>
<path d="M52 457.5C52 456.119 53.1193 455 54.5 455C55.8807 455 57 456.119 57 457.5C57 458.881 55.8807 460 54.5 460C53.1193 460 52 458.881 52 457.5Z" fill="#FCA311"/>
<path d="M15 218.5C15 217.119 16.1193 216 17.5 216C18.8807 216 20 217.119 20 218.5C20 219.881 18.8807 221 17.5 221C16.1193 221 15 219.881 15 218.5Z" fill="#FCA311"/>
</svg>
