<svg width="264" height="597" viewBox="0 0 264 597" fill="none" xmlns="http://www.w3.org/2000/svg">
<path d="M105 117C105 119.761 102.761 122 100 122C97.2386 122 95 119.761 95 117C95 114.239 97.2386 112 100 112C102.761 112 105 114.239 105 117Z" fill="#FCA311"/>
<path d="M79 376.5C79 380.642 75.6421 384 71.5 384C67.3579 384 64 380.642 64 376.5C64 372.358 67.3579 369 71.5 369C75.6421 369 79 372.358 79 376.5Z" fill="#FCA311"/>
<path d="M167 292C167 294.761 164.761 297 162 297C159.239 297 157 294.761 157 292C157 289.239 159.239 287 162 287C164.761 287 167 289.239 167 292Z" fill="#FCA311"/>
<path d="M172 529.5C172 530.881 170.881 532 169.5 532C168.119 532 167 530.881 167 529.5C167 528.119 168.119 527 169.5 527C170.881 527 172 528.119 172 529.5Z" fill="#FCA311"/>
<path d="M120 74.5C120 75.8807 118.881 77 117.5 77C116.119 77 115 75.8807 115 74.5C115 73.1193 116.119 72 117.5 72C118.881 72 120 73.1193 120 74.5Z" fill="#FCA311"/>
<path d="M157 313.5C157 314.881 155.881 316 154.5 316C153.119 316 152 314.881 152 313.5C152 312.119 153.119 311 154.5 311C155.881 311 157 312.119 157 313.5Z" fill="#FCA311"/>
</svg>
