<svg width="500" height="500" viewBox="0 0 500 500" fill="none" xmlns="http://www.w3.org/2000/svg">
<path d="M214.89 117.92C205.63 108.69 197.08 99.0199 183.59 94.8499C155.59 86.1899 122.36 91.4599 99.78 111.19C68.5 138.52 61.15 184.38 66.19 221.65C71.91 263.88 89.5 304.65 118.84 336.22C150.92 370.76 195.91 393.22 243.48 404.4C269.17 410.4 296.14 413.4 322.64 409.4C349.14 405.4 375.21 394.14 393.49 375.14C418.89 348.77 426.42 310.94 423.84 276.04C422.03 251.58 415.27 226.59 398.15 208.67C366.23 175.27 313.64 172.77 272.09 154.67C255.09 147.26 238.86 138.15 224.59 126.76C221.198 123.992 217.96 121.041 214.89 117.92Z" fill="#FCA311"/>
<path opacity="0.7" d="M214.89 117.92C205.63 108.69 197.08 99.0199 183.59 94.8499C155.59 86.1899 122.36 91.4599 99.78 111.19C68.5 138.52 61.15 184.38 66.19 221.65C71.91 263.88 89.5 304.65 118.84 336.22C150.92 370.76 195.91 393.22 243.48 404.4C269.17 410.4 296.14 413.4 322.64 409.4C349.14 405.4 375.21 394.14 393.49 375.14C418.89 348.77 426.42 310.94 423.84 276.04C422.03 251.58 415.27 226.59 398.15 208.67C366.23 175.27 313.64 172.77 272.09 154.67C255.09 147.26 238.86 138.15 224.59 126.76C221.198 123.992 217.96 121.041 214.89 117.92Z" fill="white"/>
<path d="M390.51 172.3L393.23 166.46C393.23 166.46 393.23 166.29 393.23 166C393.23 166 392.9 156.19 392.47 153.15C392.15 150.87 391.17 150.55 390.69 150.54C390.017 149.975 389.262 149.516 388.45 149.18C386.238 147.834 383.94 146.635 381.57 145.59C379.22 144.37 377.22 143.67 376.38 145C376.023 145.561 375.712 146.149 375.45 146.76C375.38 146.93 375.32 147.09 375.26 147.26V147.36C375.095 147.849 374.968 148.351 374.88 148.86L371.48 151.33L370.48 151.85L372.48 162.3L378.38 169.18C378.38 169.18 378.38 169.46 378.26 169.9C377.52 173.174 375.988 176.216 373.8 178.76C372.968 179.546 372.183 180.381 371.45 181.26C371.19 181.51 370.94 181.76 370.66 182C366.39 185.73 364.75 188.59 364.04 190.75V190.89C361.07 188.068 357.917 185.445 354.6 183.04C353.88 182.48 347.22 176.66 342.48 172.15L338.85 166.21C340.02 168.36 337.92 164.4 337.73 163.99C335.61 159.27 334.73 154.06 332.27 149.48C328.61 142.48 320.08 137.17 311.74 136.08L315.74 127.08L311.82 125.51C311.935 125.602 312.063 125.676 312.2 125.73C313.08 126.05 314.79 126.67 316.86 127.33C330.66 132.61 334.52 129.33 334.86 129.07C335.376 128.767 335.796 128.325 336.072 127.795C336.348 127.264 336.468 126.666 336.42 126.07L335.22 108.66C335.205 108.445 335.234 108.229 335.306 108.026C335.379 107.823 335.492 107.637 335.64 107.48L338.64 104.17C338.885 103.9 339.03 103.555 339.052 103.191C339.074 102.827 338.971 102.467 338.76 102.17L334.67 96.42C334.442 96.1052 334.338 95.7168 334.38 95.3301L334.84 91.0101C334.879 90.6996 334.82 90.3848 334.67 90.1101L329.06 79.28C330.163 78.7195 331.114 77.8993 331.83 76.89C334.9 71.89 334.83 68.8 332.68 67.63C330.53 66.46 326.42 73.6301 316.08 71.3701C310.9 70.3101 300 80.51 296 88.57L300.25 78.78C295.96 84.44 293.57 86.17 294.46 88.78C294.37 88.84 294.21 88.94 294.01 89.09C290.32 92.02 290.01 94.96 290.01 94.96C289.01 98.46 290.39 103.7 296.3 110.54L285.83 124.54C285.034 124.018 284.133 123.676 283.19 123.54C278.9 122.84 272.64 125.06 270.74 125.79C269.66 125.51 268.62 125.26 267.63 125.05C264.736 124.041 261.695 123.514 258.63 123.49C255.444 123.161 252.226 123.327 249.09 123.98C247.283 124.477 245.52 125.122 243.82 125.91C242.265 126.513 240.772 127.263 239.36 128.15C237.881 128.957 236.463 129.873 235.12 130.89C231.013 133.782 227.314 137.213 224.12 141.09L220.84 145C219.64 146.26 218.45 147.527 217.27 148.8C211.939 154.256 206.235 159.335 200.2 164C194.392 167.546 188.164 170.351 181.66 172.35C177.16 173.79 172.45 175.03 167.75 176.15C162.75 177.23 157.65 178.15 152.56 179.15C149.96 179.59 147.31 180.15 144.74 180.77C141.95 181.38 139.17 182.04 136.41 182.77C133.123 183.481 129.901 184.468 126.78 185.72C125.88 186.04 124.98 186.38 124.09 186.72C124.71 186.85 125.32 187 125.92 187.18C129.425 188.633 132.637 190.71 135.4 193.31C138.52 197.083 140.433 201.706 140.89 206.58C140.81 210.88 139.38 215.79 138.28 220.58C136.74 225.71 135.49 230.17 137.5 234.09C137.961 235.293 138.639 236.402 139.5 237.36C140.674 238.78 142.04 240.028 143.56 241.07C146.35 243.25 149.56 245.39 152.04 247.93C153.866 250.791 155.445 253.802 156.76 256.93C157.419 259.082 158.269 261.17 159.3 263.17C159.74 264.17 160.2 265.17 160.72 266.12C160.988 266.672 161.303 267.201 161.66 267.7C164.745 272.476 169.022 276.364 174.07 278.98C178.609 281.846 183.793 283.531 189.15 283.88C188.798 285.682 188.541 287.501 188.38 289.33C184.805 290.329 181.33 291.658 178 293.3C171.65 295.95 163.84 299.76 158.87 304.18C154.949 307.701 151.617 311.826 149 316.4C145.938 321.621 143.523 327.195 141.81 333C141.05 335.29 140.36 337.56 139.69 339.76L139.63 339.62C139.63 339.88 139.54 340.14 139.5 340.4C138.68 343.13 137.89 345.76 137.07 348.2C133.81 355.73 128.41 363.2 125.77 367.14C124.39 368.91 122.95 370.64 121.47 372.35C118.27 375.88 114.22 380.02 111.11 383.67C110.111 384.746 109.195 385.896 108.37 387.11C107.703 387.995 107.13 388.947 106.66 389.95C104.29 395.47 109.52 399.31 113.21 404.02C113.21 404.02 113.27 404.12 113.31 404.17C114.496 406.629 115.247 409.275 115.53 411.99C115.431 414.446 115.656 416.903 116.2 419.3C116.827 421.196 117.905 422.911 119.34 424.3C121.139 426.348 123.302 428.043 125.72 429.3C126.914 430.025 128.161 430.66 129.45 431.2C133.19 432.69 145.54 432.6 148.3 427.81C148.469 427.515 148.623 427.211 148.76 426.9C149.106 426.316 149.308 425.658 149.35 424.98C149.477 424.058 149.373 423.119 149.049 422.246C148.724 421.374 148.189 420.595 147.49 419.98C147.41 420.08 147.83 420.34 147.75 420.45C143.37 413.91 131.62 406.33 131.75 399.68C131.94 387.03 139.6 378.29 148.34 370.1C156.84 362.1 167.23 360.76 175.13 352.34C180.23 346.91 185.81 341.34 189.27 330C209.86 323.72 214.98 306.78 214.98 306.78C217.1 305.92 218.84 305.09 220.8 304.22C226.44 312.75 230.48 318.37 231.07 318L276.43 287.49C277.43 288.68 286.43 299.29 295.1 302.12L295.35 302.21L304.46 306.78C302.9 312.32 295.22 313.91 295.22 313.91V314L294.53 314.14C292.91 314.08 283.86 314.14 276.04 322.61C272.33 326.21 267.44 332.74 263.8 337.83C260.8 342.01 258.74 345.04 258.74 345.04C257.38 345.363 256.044 345.778 254.74 346.28C246.31 349.33 245.58 352.94 246.06 355.02C246.069 355.356 246.105 355.69 246.17 356.02C246.49 357.165 247.124 358.197 248 359C248.872 360.023 249.858 360.942 250.94 361.74C252.5 363.12 253.833 364.736 254.89 366.53C255.909 369.241 256.708 372.03 257.28 374.87C258.57 380.38 265.05 392.63 274.06 393.16C276.222 393.357 278.401 393.195 280.51 392.68C281.99 392.4 283.44 391.9 283.59 390.68C283.639 390.58 283.679 390.477 283.71 390.37C283.71 390.37 283.65 390.28 283.56 390.11C283.505 389.812 283.411 389.523 283.28 389.25C282.063 386.951 280.693 384.736 279.18 382.62C276.709 377.868 274.979 372.765 274.05 367.49C274 367.15 273.96 366.82 273.92 366.49C273.74 364.96 273.5 363.26 273.39 361.55C273.39 361.37 273.39 361.19 273.39 361.02C273.255 358.432 273.757 355.85 274.85 353.5C276.56 350.74 279.7 349.25 282.79 348.5C284.96 347.98 287.66 347.25 290.66 346.36C294.365 345.453 297.995 344.267 301.52 342.81C313.6 338.47 326.13 332.58 328.37 326.81C331.92 317.68 338.9 307.81 338.9 307.81C335.41 285 318 259.56 318 259.56L364.9 227.82C365.32 227.56 363.64 224.26 360.63 219.06L361.45 220.36C364.53 222.12 370.14 222.91 373.45 223.24L374.18 223.31C374.698 223.37 375.219 223.39 375.74 223.37C379.32 220.21 382.51 214.23 384.65 208.37C387.569 201.448 389.465 194.138 390.28 186.67C390.805 183.146 390.936 179.574 390.67 176.02C390.68 174.8 390.62 173.56 390.51 172.3ZM295.13 112.6C295.51 111.98 295.87 111.41 296.19 110.88L296.3 110.62C297.37 108.86 298 107.71 298 107.71L297.6 107.62L297.73 107.32L298 107.71C297.23 109.443 296.267 111.083 295.13 112.6Z" fill="white"/>
<path d="M369.23 184C369.23 184 372.93 196.27 388.64 192.84C388.64 192.84 391.87 184.84 390.16 172.66L393.03 166.48C393.03 166.48 392.18 156.81 392.32 155.37C392.46 153.93 392.49 150.93 387.97 149.08C383.45 147.23 377.74 142.49 376.15 145.02C374.56 147.55 374.76 148.77 374.76 148.77L370.76 151.71L372.26 162.31L378.17 169.2C378.17 169.2 377.39 175.46 374.24 178.2C372.298 179.88 370.61 181.834 369.23 184Z" fill="#FCA311"/>
<path opacity="0.2" d="M385 193.56C385 193.56 388.76 177.25 386.3 167.66C386.3 167.66 391.81 162.56 390.23 150.55C390.23 150.55 391.84 150.1 392.23 153.14C392.62 156.18 393 166 393 166L390.32 172.18C390.32 172.18 390.12 186.28 389.24 191.86C389.23 191.86 389 193.09 385 193.56Z" fill="black"/>
<path d="M310.82 138.91L361.44 212.91C361.44 212.91 364.44 215.98 371.73 217.36C371.73 217.36 382.51 205.36 384.97 193.57L388.97 192.77C388.97 192.77 384.33 216.05 375.97 223.49C375.97 223.49 365.88 222.98 361.38 220.39L310.45 139.8L310.82 138.91Z" fill="#FCA311"/>
<path opacity="0.6" d="M310.82 138.91L361.44 212.91C361.44 212.91 364.44 215.98 371.73 217.36C371.73 217.36 382.51 205.36 384.97 193.57L388.97 192.77C388.97 192.77 384.33 216.05 375.97 223.49C375.97 223.49 365.88 222.98 361.38 220.39L310.45 139.8L310.82 138.91Z" fill="white"/>
<path d="M311.73 136.33C315.946 136.621 320.018 137.98 323.564 140.279C327.11 142.577 330.013 145.74 332 149.47C334.4 154.05 335.33 159.26 337.46 163.98C340.98 171.79 347.56 177.78 354.33 183.04C358.59 186.34 363.06 189.51 366.33 193.8C367.992 195.964 369.212 198.435 369.92 201.07" stroke="#263238" stroke-linecap="round" stroke-linejoin="round"/>
<path d="M363.78 190.74C364.5 188.58 366.13 185.74 370.4 182C377.56 175.75 378.13 169.18 378.13 169.18L372.22 162.29L370.22 151.85L374.54 149.63C374.54 149.63 374.79 145.85 376.94 144.69C379.09 143.53 389.24 149.57 391.47 151.29C392.91 152.41 392.05 157.87 393.01 166C391.46 169.51 390.33 172.18 390.33 172.18C392.92 203.04 375.91 223.48 375.91 223.48C370.912 223.209 365.987 222.163 361.31 220.38" stroke="#263238" stroke-linecap="round" stroke-linejoin="round"/>
<path d="M375.64 153.2L378.76 156C379.205 156.427 379.69 156.809 380.21 157.14C380.985 157.74 381.907 158.12 382.88 158.24C383.69 158.279 384.5 158.153 385.26 157.87C385.95 157.57 387.47 154.87 387.67 154.19" stroke="#263238" stroke-linecap="round" stroke-linejoin="round"/>
<path d="M369.08 183.29C369.08 183.29 372.29 197.02 389.27 192.53" stroke="#263238" stroke-linecap="round" stroke-linejoin="round"/>
<path d="M381.84 145.93C380.985 146.259 380.212 146.772 379.576 147.432C378.94 148.092 378.457 148.883 378.16 149.75C377.753 150.615 377.532 151.556 377.512 152.512C377.491 153.468 377.671 154.418 378.04 155.3" stroke="#263238" stroke-linecap="round" stroke-linejoin="round"/>
<path d="M386.58 148.24C385.512 148.563 384.528 149.118 383.698 149.865C382.869 150.611 382.214 151.532 381.78 152.56C381.06 154.179 380.909 155.994 381.35 157.71" stroke="#263238" stroke-linecap="round" stroke-linejoin="round"/>
<path d="M380.68 157.46C381.786 158.062 382.797 158.823 383.68 159.72C385.52 161.77 385.87 164.72 386.14 167.44" stroke="#263238" stroke-linecap="round" stroke-linejoin="round"/>
<path d="M374.52 149.63C374.52 149.63 377.77 147.63 378.32 148.71" stroke="#263238" stroke-linecap="round" stroke-linejoin="round"/>
<path d="M161.81 361.31C161.81 361.31 142.68 356.36 139.89 339.83C137.263 347.869 133.535 355.505 128.81 362.52C121.34 373.27 106.53 385.6 106.47 389.91C106.41 394.22 107.3 396.86 111.18 400.48C115.06 404.1 115.48 413.66 115.63 415.91C115.925 418.257 116.713 420.516 117.941 422.537C119.17 424.559 120.812 426.298 122.76 427.64C128.32 431.64 137.29 433.29 143.89 430.58C150.49 427.87 150 422.81 147.79 420.34C145.58 417.87 132.28 405.67 131.79 401.54C131.3 397.41 132.73 389 137.14 382.32C141.55 375.64 152.4 365.41 161.81 361.31Z" fill="#FCA311"/>
<path d="M315.69 127.27C315.69 127.27 311.6 133.96 310.37 139.79" stroke="#263238" stroke-linecap="round" stroke-linejoin="round"/>
<path d="M319.56 82.22C321 86.33 322.15 90.86 320.73 94.97C319.86 97.5 318.09 99.63 317.19 102.14C316.19 104.87 316.32 107.87 316.44 110.77C316.61 114.69 316.88 118.89 319.3 121.97C322.83 126.47 329.38 126.82 334.66 129.04C334.66 129.04 331.11 132.89 316.55 127.3L311.55 125.49L308.9 137.61C308.9 137.61 307.34 134.99 304.9 135.39C302.46 135.79 295.98 140.62 295.98 140.62C295.98 140.62 292.26 136.94 291.43 134.46C290.6 131.98 288.33 126.04 285.69 124.67C285.69 124.67 296.69 111.35 297.91 107.74C297.91 107.74 291.67 99.52 298.83 96.29C305.99 93.06 309.92 101.29 309.92 101.29L307.4 90.62L317 82.5L319.56 82.22Z" fill="#FCA311"/>
<path opacity="0.6" d="M319.56 82.22C321 86.33 322.15 90.86 320.73 94.97C319.86 97.5 318.09 99.63 317.19 102.14C316.19 104.87 316.32 107.87 316.44 110.77C316.61 114.69 316.88 118.89 319.3 121.97C322.83 126.47 329.38 126.82 334.66 129.04C334.66 129.04 331.11 132.89 316.55 127.3L311.55 125.49L308.9 137.61C308.9 137.61 307.34 134.99 304.9 135.39C302.46 135.79 295.98 140.62 295.98 140.62C295.98 140.62 292.26 136.94 291.43 134.46C290.6 131.98 288.33 126.04 285.69 124.67C285.69 124.67 296.69 111.35 297.91 107.74C297.91 107.74 291.67 99.52 298.83 96.29C305.99 93.06 309.92 101.29 309.92 101.29L307.4 90.62L317 82.5L319.56 82.22Z" fill="white"/>
<path d="M328.59 78.8101L334.47 90.1701C334.616 90.4425 334.675 90.753 334.64 91.0601L334.18 95.3901C334.14 95.7721 334.239 96.1557 334.46 96.4701L338.56 102.23C338.773 102.527 338.876 102.889 338.853 103.253C338.829 103.618 338.68 103.963 338.43 104.23L335.43 107.53C335.286 107.689 335.176 107.876 335.105 108.078C335.035 108.281 335.006 108.496 335.02 108.71L336.22 126.12C336.267 126.792 336.098 127.462 335.739 128.032C335.379 128.602 334.847 129.043 334.22 129.29C332.774 129.781 331.257 130.034 329.73 130.04C324.5 130.22 314.6 126.7 312 125.74C311.797 125.667 311.612 125.553 311.456 125.405C311.299 125.257 311.175 125.078 311.09 124.88L306.76 114.64" stroke="#263238" stroke-linecap="round" stroke-linejoin="round"/>
<path d="M306.26 101.54C306.26 101.54 303.26 94.8201 300.69 95.5401C298.12 96.2601 295.05 98.5401 295.12 101.6C295.19 104.66 299.89 109.98 301.89 110.45C303.366 110.691 304.878 110.574 306.3 110.11" stroke="#263238" stroke-linecap="round" stroke-linejoin="round"/>
<path d="M330.18 96.6499C330.18 97.6499 329.77 98.4499 329.29 98.4399C328.81 98.4299 328.43 97.6199 328.45 96.6299C328.47 95.6399 328.86 94.8299 329.34 94.8399C329.82 94.8499 330.2 95.6599 330.18 96.6499Z" fill="#263238"/>
<path d="M326.58 108.54C326.587 109.601 326.957 110.629 327.628 111.451C328.299 112.273 329.231 112.841 330.27 113.06" stroke="#263238" stroke-linecap="round" stroke-linejoin="round"/>
<path d="M330.42 90.3601C330.42 90.3601 325.95 86.4701 323.34 93.6301" stroke="#263238" stroke-width="2" stroke-linecap="round" stroke-linejoin="round"/>
<path d="M297.06 107.57L297.84 107.74C297.84 107.74 291.75 118.81 285.62 124.67" stroke="#263238" stroke-linecap="round" stroke-linejoin="round"/>
<path d="M299.28 109C299.28 109 296.78 128.1 300.28 136.9" stroke="#263238" stroke-linecap="round" stroke-linejoin="round"/>
<path d="M294.85 90.2901C294.85 90.2901 290.73 82.2101 296.51 74.6001" stroke="#263238" stroke-linecap="round" stroke-linejoin="round"/>
<path d="M296.44 88.9C288.59 88.47 286.25 97.9 286.25 97.9" stroke="#263238" stroke-linecap="round" stroke-linejoin="round"/>
<path d="M332.48 67.6901C330.36 66.5101 326.22 73.6901 315.88 71.4301C309.29 70.0101 293.45 74.3601 294.37 88.7801C294.37 88.7801 282.28 95.7801 296.03 110.91L297.8 106.8C297.8 106.8 292.07 100.66 297.02 97.5501C301.4 94.8101 301.96 95.1401 306.13 101.77C306.13 101.77 307.53 104.67 310.25 103.85C312.97 103.03 312.85 101.9 311.75 99.1701C311.34 98.1701 310.66 96.4701 310.1 94.6101C312.58 93.9001 318.54 91.3401 318.46 83.1201V83.0001C323.73 81.5401 329.81 79.8201 331.63 76.9001C334.7 72.0001 334.6 68.8601 332.48 67.6901Z" fill="#263238"/>
<path d="M297.18 88.4C296.42 83.91 299.51 79.46 303.5 77.28C307.49 75.1 312.21 74.74 316.76 74.66C319.66 74.7492 322.562 74.5144 325.41 73.96C326.406 73.7315 327.375 73.3962 328.3 72.96" stroke="white" stroke-width="0.5" stroke-linecap="round" stroke-linejoin="round"/>
<path d="M299.42 90.8201C299.728 89.088 300.557 87.4907 301.794 86.2404C303.032 84.9901 304.621 84.1459 306.35 83.8201C308.16 83.5201 310.04 83.8201 311.84 83.4401C313.64 83.0601 315.48 81.6801 315.4 79.8401" stroke="white" stroke-width="0.5" stroke-linecap="round" stroke-linejoin="round"/>
<path d="M253.93 170.2L301.81 136.11C302.362 135.717 302.99 135.443 303.653 135.305C304.317 135.167 305.002 135.169 305.665 135.31C306.328 135.451 306.954 135.728 307.504 136.124C308.054 136.52 308.516 137.026 308.86 137.61C308.86 137.61 366.99 226.42 364.74 227.82L230.85 317.89C228.56 319.33 175.17 231.65 175.17 231.65C174.507 230.59 174.273 229.317 174.517 228.09C174.76 226.864 175.462 225.777 176.48 225.05L201.84 206.68" stroke="#263238" stroke-linecap="round" stroke-linejoin="round"/>
<path d="M288.93 278.4C291.31 284.19 296.52 288.26 301.68 291.8C306.84 295.34 312.32 298.8 315.75 304.02C319.18 309.24 319.88 316.9 315.51 321.37C315.12 321.853 314.619 322.234 314.049 322.479C313.48 322.725 312.859 322.828 312.24 322.78C309.4 322.22 309.9 317.58 307.59 315.84C304.1 320.78 296.89 322.68 292.85 323.25L295 313.81C295 313.81 300.29 313.22 304.25 307.56C304.25 307.56 304.09 305.02 294.88 302.02C285.67 299.02 276.11 287.27 276.11 287.27L288.93 278.4Z" fill="#FCA311"/>
<path opacity="0.6" d="M288.93 278.4C291.31 284.19 296.52 288.26 301.68 291.8C306.84 295.34 312.32 298.8 315.75 304.02C319.18 309.24 319.88 316.9 315.51 321.37C315.12 321.853 314.619 322.234 314.049 322.479C313.48 322.725 312.859 322.828 312.24 322.78C309.4 322.22 309.9 317.58 307.59 315.84C304.1 320.78 296.89 322.68 292.85 323.25L295 313.81C295 313.81 300.29 313.22 304.25 307.56C304.25 307.56 304.09 305.02 294.88 302.02C285.67 299.02 276.11 287.27 276.11 287.27L288.93 278.4Z" fill="white"/>
<path d="M304.09 341.45C304.09 341.45 289.34 333.77 294.54 314.05C294.54 314.05 284.42 313.14 275.8 322.51C267.18 331.88 258.5 344.94 258.5 344.94C258.5 344.94 245.74 348.8 245.87 353.7C246 358.6 249.68 360.82 252.2 362.82C254.72 364.82 255.82 369.34 257.11 374.82C258.4 380.3 264.88 392.58 273.89 393.11C282.9 393.64 283.53 390.32 283.53 390.32C283.53 390.32 281.62 386.95 279.14 382.8C276.66 378.65 273.28 368.8 273.2 360.95C273.12 353.1 276.31 349.63 281.82 348.34C287.33 347.05 297.37 345.07 304.09 341.45Z" fill="#FCA311"/>
<path d="M276.64 287.61C275.09 286.05 285.74 298.83 296.95 302.76C307.95 306.63 307.95 312.12 307.95 312.12" stroke="#263238" stroke-linecap="round" stroke-linejoin="round"/>
<path d="M317.84 259.56C317.84 259.56 335.21 284.98 338.71 307.79C338.71 307.79 331.71 317.67 328.17 326.79C324.63 335.91 295 345.46 282.6 348.47C279.24 349.28 275.8 350.95 274.23 354.2C272.48 357.82 273.3 362.62 273.74 366.46C274.163 370.7 275.218 374.853 276.87 378.78C278.53 382.53 281.37 385.56 283.11 389.22C284.53 392.22 280.87 392.62 278.63 392.92C264.86 394.79 258 379.75 256.35 371C254.7 362.25 246.8 360.18 245.94 355.91C244.35 348.03 258.5 344.91 258.5 344.91C258.23 345.48 269.01 329.07 275.8 322.48C278.42 319.92 281.26 317.42 284.8 316.06C288.34 314.7 292.39 314.56 296.15 313.61C299.91 312.66 303.75 310.41 304.52 306.85" stroke="#263238" stroke-linecap="round" stroke-linejoin="round"/>
<path d="M294.73 314.17C294.73 314.17 287.65 332.1 304.52 341.56" stroke="#263238" stroke-linecap="round" stroke-linejoin="round"/>
<path d="M281.28 284.31C286.535 290.788 293.382 295.791 301.15 298.83" stroke="#263238" stroke-linecap="round" stroke-linejoin="round"/>
<path d="M296.91 317.16C293.618 317.367 290.372 318.04 287.27 319.16C284.153 320.293 281.392 322.232 279.27 324.78" stroke="#263238" stroke-linecap="round" stroke-linejoin="round"/>
<path opacity="0.2" d="M293.17 323.63C287.104 325.894 281.234 328.653 275.62 331.88C269.995 335.122 265.189 339.61 261.57 345C261.17 345.698 260.698 346.352 260.16 346.95C258.83 348.28 256.87 348.68 255.11 349.35C251.23 350.83 246.53 356.98 246.61 356.59C246.61 356.59 240.85 349.59 258.5 344.9C258.5 344.9 267.56 331.67 273.64 324.98C279.72 318.29 283.15 315.2 294.23 314.07L293.17 323.63Z" fill="black"/>
<path d="M294 141.7L295.22 140.61C293.59 138.28 292.14 135.829 290.88 133.28C289.56 130.28 288.13 124.41 283.02 123.58C277.91 122.75 270.02 126.06 270.02 126.06C270.02 126.06 258.73 121.8 248.95 124.06C248.95 124.06 235.41 127.35 223.95 141.17C212.49 154.99 203.47 165.34 181.5 172.38C159.53 179.42 132.79 181.8 124.63 186.81C124.63 186.81 139.85 191.98 140.79 204.49C141.73 217 133.45 226.61 137.34 234.17C141.23 241.73 148.44 243.33 151.62 247.63C154.8 251.93 158.74 262.23 160.57 266.26C162.4 270.29 174.2 282.59 189 284C189 284 191.91 270.6 195.62 265L175.2 231.63C175.2 231.63 172.78 227.9 176.83 224.63C180.88 221.36 201.83 206.7 201.83 206.7C201.83 206.7 198.4 200.35 197.73 195.22C197.24 192.03 195.698 189.095 193.35 186.88C193.35 186.88 195.72 179.57 201.28 175.28C206.84 170.99 217.36 160.91 221.96 154.36C226.56 147.81 236.84 128.6 255.74 126.27C259.477 127.559 262.928 129.563 265.9 132.17C271.08 136.6 281.09 144.25 294 141.7Z" fill="#FCA311"/>
<path opacity="0.2" d="M189 284C189 284 176.4 284 165.67 272.28C154.94 260.56 157.67 254.67 152.85 249.04C148.03 243.41 139.41 239.9 137.34 234.15C135.27 228.4 140.01 214.27 140.7 209.34C141.39 204.41 138.2 190.2 124.63 186.79C124.63 186.79 140.51 180.95 154.33 178.89C168.15 176.83 187.57 171.58 196.5 166.36C205.43 161.14 220.59 145.55 223.5 142.19C226.41 138.83 237.18 127.36 245.5 125.43C252.2 123.88 255.81 126.27 255.81 126.27C255.81 126.27 239.81 129.67 231.29 140.35C224.44 148.89 223.05 155.52 213.86 164.23C204.67 172.94 196.57 177.07 193.35 186.07C193.35 186.07 196.7 190.95 197.2 194C197.7 197.05 201.9 206.7 201.9 206.7L176.54 225.07C176.54 225.07 172.54 227.32 175.36 232.3C178.18 237.28 195.73 265.3 195.73 265.3C195.73 265.3 188.68 279.08 189 284Z" fill="black"/>
<path opacity="0.38" d="M271 125.94C271 125.94 281.51 122.38 284.85 124.38C288.19 126.38 295.23 141.2 295.23 141.2L293.34 142.77C293.34 142.77 278.65 141.4 273.39 137.59C268.13 133.78 261.39 125.71 249.3 124.82C249.32 124.82 256.1 122 271 125.94Z" fill="white"/>
<path d="M247.81 124.72C234.58 128.55 230.5 135.11 223.44 142.17C218.26 147.35 213.53 152.98 208.16 157.96C185.77 178.7 152.34 175.68 123.89 186.76C128.057 187.493 131.893 189.502 134.869 192.51C137.844 195.518 139.812 199.375 140.5 203.55C142.08 212.75 134.15 226.21 137.76 234.82C140.12 240.45 146.9 242.63 151.13 247.04C156.13 252.21 157.13 259.93 160.54 266.22C166.22 276.58 177.17 282.09 188.97 283.98" stroke="#263238" stroke-linecap="round" stroke-linejoin="round"/>
<path d="M195.15 189.52C193.54 191.16 192.09 192.95 190.51 194.61C182.56 202.93 171.58 207.54 160.94 211.94" stroke="#263238" stroke-linecap="round" stroke-linejoin="round"/>
<path d="M197.92 197C191.98 204 183.69 207.35 175.64 211.79C167.59 216.23 159.45 221.94 156.31 230.58" stroke="#263238" stroke-linecap="round" stroke-linejoin="round"/>
<path d="M275.44 130.5C265.22 118.74 245.44 125.41 245.44 125.41C253 124.41 258.73 125.41 269.91 134.8C278.64 142.13 289.09 142.48 293.13 142.25" stroke="#263238" stroke-linecap="round" stroke-linejoin="round"/>
<path d="M269.8 126.14C273.088 125.192 276.427 124.428 279.8 123.85C280.707 123.662 281.636 123.598 282.56 123.66C283.538 123.825 284.472 124.185 285.307 124.72C286.142 125.254 286.861 125.951 287.42 126.77C288.527 128.411 289.465 130.16 290.22 131.99C291.652 134.992 293.349 137.859 295.29 140.56" stroke="#263238" stroke-linecap="round" stroke-linejoin="round"/>
<path d="M205.45 281.32C205.45 281.32 193.7 290.86 190.45 306.61C189.383 305.477 188.636 304.081 188.285 302.565C187.934 301.049 187.991 299.467 188.45 297.98C188.45 297.98 155.45 312.04 142.6 347.81L139.83 339.81C139.83 339.81 144.27 314.63 160.23 303.43C176.37 292.09 188.14 289.43 188.14 289.43C188.14 289.43 190.14 272 195.66 265.77L205.45 281.32Z" fill="#FCA311"/>
<path opacity="0.6" d="M205.45 281.36C205.45 281.36 193.7 290.86 190.45 306.61C189.383 305.477 188.636 304.081 188.285 302.565C187.934 301.049 187.991 299.467 188.45 297.98C188.45 297.98 155.45 312.04 142.6 347.81L139.83 339.81C139.83 339.81 144.27 314.63 160.23 303.43C176.37 292.09 188.14 289.43 188.14 289.43C188.14 289.43 190.14 272.23 195.66 266L205.45 281.36Z" fill="white"/>
<path d="M220.62 304.09C218.62 304.97 216.89 305.81 214.76 306.67C214.76 306.67 209.64 323.61 189.05 329.9C185.59 341.22 180.05 346.81 174.91 352.24C167.01 360.65 156.62 362.04 148.12 369.99C139.37 378.18 131.72 386.92 131.53 399.57C131.37 409.65 158.48 421.89 145.78 429.35C133.08 436.81 116.32 426.6 115.78 416.85C115.24 407.1 113.62 403.47 108.78 398.19C103.42 392.3 107.48 387.19 112.19 382.24C121.89 371.99 130.19 362.77 136.26 349.89C141 336.66 144.03 317.12 158.61 304.18C168.15 295.71 188.18 289.41 188.18 289.41C188.18 289.41 189.09 276.41 195.67 265.3" stroke="#263238" stroke-linecap="round" stroke-linejoin="round"/>
<path d="M139.73 339C140.08 338 142.73 358.89 162.44 360.84" stroke="#263238" stroke-linecap="round" stroke-linejoin="round"/>
<path d="M173.92 298.73C165.899 302.393 159.279 308.553 155.05 316.29" stroke="#263238" stroke-linecap="round" stroke-linejoin="round"/>
<path d="M182.71 295.72C180.419 296.238 178.175 296.944 176 297.83" stroke="#263238" stroke-linecap="round" stroke-linejoin="round"/>
<path d="M121.69 422C123.585 424.808 126.28 426.983 129.424 428.244C132.569 429.504 136.02 429.792 139.33 429.07" stroke="#263238" stroke-linecap="round" stroke-linejoin="round"/>
<path opacity="0.2" d="M142.8 346.87C139.4 356.36 134.59 364.87 127.13 371.65C123.97 374.53 120.49 377.09 117.64 380.29C114.79 383.49 112.55 387.5 112.55 391.78C112.673 394.245 113.162 396.678 114 399C115.16 402.74 116.313 406.473 117.46 410.2C118.137 412.841 119.191 415.37 120.59 417.71C122.121 419.909 124.11 421.751 126.42 423.11C129.626 425.208 133.379 426.314 137.21 426.29C141.01 426.15 145.59 423.14 147.79 420.03C147.79 420.03 150.85 422.93 148.09 427.72C145.33 432.51 132.99 432.6 129.25 431.11C125.51 429.62 117.53 424.67 116 419.27C114.47 413.87 116.69 408.71 113 404C109.31 399.29 104.09 395.44 106.46 389.92C108.83 384.4 121.9 372.6 125.57 367.11C129.24 361.62 138.21 349.42 139.43 339.58L142.8 346.87Z" fill="black"/>
<path d="M288.36 212.29L362.38 222.9L364.22 227.57L288.56 214.38L288.36 212.29Z" fill="#FCA311"/>
<path opacity="0.6" d="M288.36 212.29L362.38 222.9L364.22 227.57L288.56 214.38L288.36 212.29Z" fill="white"/>
<path d="M249.95 242.13L226.62 312.49L230.79 317.59L250.9 244.11L249.95 242.13Z" fill="#FCA311"/>
<path opacity="0.6" d="M249.95 242.13L226.62 312.49L230.79 317.59L250.9 244.11L249.95 242.13Z" fill="white"/>
<path d="M306.39 135.72L282.33 252.15L175.17 231.65L174.69 229.85L279 246.8L306.39 135.72Z" fill="#FCA311"/>
<path opacity="0.6" d="M306.39 135.72L282.33 252.15L175.17 231.65L174.69 229.85L279 246.8L306.39 135.72Z" fill="white"/>
<path d="M305.32 183.203C312.936 179.86 316.399 170.976 313.056 163.36C309.713 155.744 300.829 152.28 293.213 155.623C285.597 158.967 282.133 167.851 285.476 175.467C288.82 183.083 297.704 186.546 305.32 183.203Z" fill="#FCA311"/>
<path d="M301.46 154.23L305.95 135.56" stroke="#263238" stroke-linecap="round" stroke-linejoin="round"/>
<path d="M230.72 317.4L251.81 242.1" stroke="#263238" stroke-linecap="round" stroke-linejoin="round"/>
<path d="M286.93 214.3L364.5 227.46" stroke="#263238" stroke-linecap="round" stroke-linejoin="round"/>
<path d="M238.29 200.08L275.62 173.23" stroke="#263238" stroke-linecap="round" stroke-linejoin="round"/>
<path d="M240.28 205.59L278.48 178.08" stroke="#263238" stroke-linecap="round" stroke-linejoin="round"/>
<path d="M244.59 214.58C248.87 214.92 253.79 211.89 256.23 208.41C258.67 204.93 260.61 200.91 264.13 198.47C266.502 197.037 269.083 195.981 271.78 195.34C274.48 194.69 277.017 193.488 279.23 191.81C281.32 190 282.65 187.09 281.81 184.48" stroke="#263238" stroke-linecap="round" stroke-linejoin="round"/>
<path d="M247.17 218.12C251.45 218.78 255.38 215.79 258.06 212.42C260.74 209.05 262.82 205.11 266.33 202.59C269.062 200.498 272.219 199.03 275.58 198.29C281.25 197.29 285.03 193.82 285.22 190.43" stroke="#263238" stroke-linecap="round" stroke-linejoin="round"/>
<path d="M299.2 184.24C307.495 184.24 314.22 177.515 314.22 169.22C314.22 160.925 307.495 154.2 299.2 154.2C290.905 154.2 284.18 160.925 284.18 169.22C284.18 177.515 290.905 184.24 299.2 184.24Z" stroke="#263238" stroke-linecap="round" stroke-linejoin="round"/>
<path d="M253.93 170.2L301.81 136.11C302.362 135.717 302.99 135.443 303.653 135.305C304.317 135.167 305.002 135.169 305.665 135.31C306.328 135.451 306.954 135.728 307.504 136.124C308.054 136.52 308.516 137.026 308.86 137.61C308.86 137.61 366.99 226.42 364.74 227.82L230.85 317.89C228.56 319.33 175.17 231.65 175.17 231.65C174.507 230.59 174.273 229.317 174.517 228.09C174.76 226.864 175.462 225.777 176.48 225.05L201.84 206.68" stroke="#263238" stroke-linecap="round" stroke-linejoin="round"/>
<path d="M279.86 242.94L294.18 183.6" stroke="#263238" stroke-linecap="round" stroke-linejoin="round"/>
<path d="M174.42 229.86L252.03 242.05" stroke="#263238" stroke-linecap="round" stroke-linejoin="round"/>
<path d="M223.88 225.16C223.88 225.16 235.95 226.63 241.88 211.08C241.88 211.08 248.88 221.43 254.61 225.3C254.61 225.3 257.05 224.66 262.42 225.95C266.644 226.786 270.944 227.178 275.25 227.12C275.25 227.12 273.92 231.79 270.96 231.88C269.035 231.886 267.136 231.433 265.42 230.56L264.76 232.19L284.61 247.05C284.86 247.37 285.045 247.736 285.153 248.127C285.26 248.518 285.29 248.927 285.239 249.33C285.187 249.733 285.057 250.121 284.855 250.473C284.652 250.825 284.382 251.133 284.06 251.38L270.06 241.68L269.4 243.32C269.4 243.32 277.78 254.5 278.02 256.26C278.26 258.02 277.86 258.14 276.51 258.26C275.16 258.38 273.17 256.32 273.17 256.32L265.68 245.55L264.38 246.74C264.38 246.74 269.74 257.74 269.05 260.07C268.36 262.4 265.3 259.16 265.3 259.16L261.14 249.39C261.14 249.39 262.77 257.1 260.33 258.14C257.89 259.18 257.71 256.08 257.06 248.72L250.58 239.87C250.58 239.87 231.64 231.27 223.88 225.16Z" fill="#FCA311"/>
<path opacity="0.2" d="M230.68 223.78L251.74 238.26L257.01 248.72L251.45 240.74L223.78 226.13L230.68 223.78Z" fill="black"/>
<path d="M263.05 130.18C253.88 135.18 252.59 136.71 247.8 140.91C241.8 146.17 236.27 152.91 235.67 160.83C235.481 162.196 235.701 163.588 236.3 164.83C237.56 167.08 240.64 167.76 243.12 167.05C245.6 166.34 247.62 164.58 249.55 162.87C249.02 163.34 248.71 164.94 248.26 165.61C247.676 166.484 246.965 167.266 246.15 167.93C244.298 169.348 242.174 170.369 239.91 170.93C234.42 172.5 228.39 172.4 222.71 173.53C216.71 174.72 212.62 177.82 208.77 182.45C206.04 185.73 210.77 194.2 212.14 198.24C215.32 207.92 223.44 216.61 230.68 223.77L223.88 225.15C223.88 225.15 205.53 215.44 201.88 206.67C198.23 197.9 196.17 190.46 193.01 186.34C193.01 186.34 195.68 180.05 207.42 169.72C219.16 159.39 225.23 149.21 229.78 143.02C235.92 134.65 250.08 126.76 255.78 126.24C255.73 126.22 258.17 126.63 263.05 130.18Z" fill="#FCA311"/>
<path opacity="0.6" d="M263.19 130.11C254.01 135.11 252.59 136.71 247.8 140.91C241.8 146.17 236.27 152.91 235.67 160.83C235.481 162.196 235.701 163.588 236.3 164.83C237.56 167.08 240.64 167.76 243.12 167.05C245.6 166.34 247.62 164.58 249.55 162.87C249.02 163.34 248.71 164.94 248.26 165.61C247.676 166.484 246.965 167.266 246.15 167.93C244.298 169.347 242.174 170.369 239.91 170.93C234.42 172.5 228.39 172.4 222.71 173.53C216.71 174.72 212.62 177.82 208.77 182.45C206.04 185.73 210.77 194.2 212.14 198.24C215.32 207.92 223.44 216.61 230.68 223.77L223.88 225.15C223.88 225.15 205.53 215.44 201.88 206.67C198.23 197.9 196.17 190.46 193.01 186.34C193.01 186.34 195.68 180.05 207.42 169.72C219.16 159.39 225.23 149.21 229.78 143.02C235.92 134.65 250.78 126.81 256.48 126.29C258.82 127.373 261.065 128.651 263.19 130.11Z" fill="white"/>
<path d="M233.13 192.33C241.42 186.68 254.62 175.09 256.93 160.87" stroke="#263238" stroke-linecap="round" stroke-linejoin="round"/>
<path d="M257.31 227.07C249.64 222.418 243.782 215.294 240.7 206.87C236.41 195.23 231.89 188.48 220.46 184.13" stroke="#263238" stroke-linecap="round" stroke-linejoin="round"/>
<path d="M205 205.08C208.518 210.74 213.604 215.256 219.64 218.08" stroke="#263238" stroke-linecap="round" stroke-linejoin="round"/>
<path d="M201.49 197.54C202.08 199.409 202.84 201.22 203.76 202.95" stroke="#263238" stroke-linecap="round" stroke-linejoin="round"/>
<path d="M223.88 225.16C223.88 225.16 237.16 225.51 242.12 210.47" stroke="#263238" stroke-linecap="round" stroke-linejoin="round"/>
<path d="M247.1 133.39C249.296 132.504 251.574 131.834 253.9 131.39" stroke="#263238" stroke-linecap="round" stroke-linejoin="round"/>
<path d="M229.31 149.54C232.735 143.053 238.111 137.806 244.68 134.54" stroke="#263238" stroke-linecap="round" stroke-linejoin="round"/>
<path d="M220.3 181.5C222.127 181.978 223.83 182.843 225.293 184.037C226.756 185.231 227.945 186.726 228.78 188.42" stroke="#263238" stroke-linecap="round" stroke-linejoin="round"/>
<path d="M255.35 225.67C257.99 224.46 261.35 225.44 262.93 225.95C265.09 226.62 273.61 227.82 275.22 227.12C276.83 226.42 273.81 230.79 271.95 231.65C270.09 232.51 265.39 230.56 265.39 230.56L264.73 232.19C264.73 232.19 283.91 245.6 285 247.5C286.09 249.4 285.35 251.24 284.06 251.38C282.77 251.52 270.06 241.68 270.06 241.68L269.4 243.32C269.4 243.32 279.4 256.13 278.4 257.47C277.4 258.81 275.3 258.27 273.68 256.57C272.06 254.87 265.68 245.57 265.68 245.57L264.38 246.76C264.38 246.76 269.75 258.76 269.05 260.09C268.35 261.42 266.67 260.94 265.69 259.69C264.71 258.44 260.75 248.59 260.75 248.59C260.75 248.59 261.8 256.87 261.18 257.78C261.012 257.995 260.796 258.167 260.549 258.283C260.303 258.399 260.032 258.455 259.76 258.447C259.487 258.44 259.221 258.368 258.981 258.238C258.741 258.108 258.535 257.924 258.38 257.7C257.75 256.7 257.06 248.7 257.06 248.7L250.58 239.85C237.01 234.49 212.71 218.16 212.71 218.16C199.89 207.85 198.71 199.46 197.19 193.96C196.503 191.324 195.208 188.886 193.41 186.84C196.88 173.45 212.88 170.72 225.19 149.47C237.5 128.22 256.72 126.31 256.72 126.31" stroke="#263238" stroke-linecap="round" stroke-linejoin="round"/>
<path d="M88.21 319.71L65.79 338.25" stroke="#263238" stroke-linecap="round" stroke-linejoin="round"/>
<path d="M146.71 271.33L101.78 308.48" stroke="#263238" stroke-linecap="round" stroke-linejoin="round"/>
<path d="M87.79 254.83L78.94 262.15" stroke="#263238" stroke-linecap="round" stroke-linejoin="round"/>
<path d="M129.74 220.14L94.73 249.09" stroke="#263238" stroke-linecap="round" stroke-linejoin="round"/>
<path d="M107.79 245.31L86.45 262.96" stroke="#263238" stroke-linecap="round" stroke-linejoin="round"/>
<path d="M219.94 333.13L192.16 356.1" stroke="#263238" stroke-linecap="round" stroke-linejoin="round"/>
<path d="M234.79 320.85L223.74 329.98" stroke="#263238" stroke-linecap="round" stroke-linejoin="round"/>
<path d="M230.56 330.92L219.51 340.06" stroke="#263238" stroke-linecap="round" stroke-linejoin="round"/>
<path d="M354.56 131.19L347.76 136.81" stroke="#263238" stroke-linecap="round" stroke-linejoin="round"/>
<path d="M382.14 108.38L357.8 128.51" stroke="#263238" stroke-linecap="round" stroke-linejoin="round"/>
</svg>
