<svg width="61" height="61" viewBox="0 0 61 61" fill="none" xmlns="http://www.w3.org/2000/svg">
<g filter="url(#filter0_d)">
<path d="M4 26.8889V53H30.306H56.6119V26.8889V0.777775H30.306H4V26.8889ZM36.8657 26.9333C36.7985 36.0889 36.709 39.5556 36.5075 40.1556C35.7015 42.5333 33.709 44.2222 31.0448 44.8C28.3134 45.4 22.2239 45 20.8358 44.1556C20.6343 44 20.7687 43.3556 21.4851 41.2889L22.403 38.6L23.1194 38.8889C25.4478 39.8667 28.7836 39.9778 29.7463 39.1111C30.6418 38.3111 30.709 37.5333 30.7985 25.8222L30.9104 14.5556H33.9104H36.9328L36.8657 26.9333Z" fill="#FCA311"/>
<path d="M37.3657 26.936L37.3657 26.937C37.3321 31.5147 37.2929 34.6747 37.2368 36.7662C37.2087 37.8114 37.1763 38.5952 37.1378 39.1581C37.1011 39.6952 37.0561 40.0923 36.9814 40.3147L36.981 40.3161C36.1128 42.8774 33.9681 44.6774 31.1514 45.2885C29.7167 45.6035 27.4562 45.6499 25.4046 45.5184C24.3722 45.4523 23.3756 45.34 22.5431 45.1888C21.7333 45.0418 21.0097 44.8466 20.576 44.5827L20.5522 44.5683L20.5303 44.5513C20.3083 44.38 20.2589 44.1286 20.2519 43.9525C20.2448 43.7722 20.2765 43.5619 20.3282 43.33C20.4332 42.8598 20.6549 42.1572 21.0122 41.1263C21.0124 41.1259 21.0125 41.1255 21.0127 41.1251L21.9298 38.4385L22.1004 37.9388L22.59 38.1363L23.3064 38.4252L23.3064 38.4251L23.313 38.4279C24.4131 38.8899 25.7679 39.152 26.9617 39.1919C27.5573 39.2119 28.0974 39.1759 28.5348 39.0891C28.9853 38.9997 29.2697 38.8674 29.4117 38.7395L29.4132 38.7382C29.5937 38.5769 29.7078 38.444 29.8059 38.1736C29.9155 37.8714 30.0069 37.3891 30.0762 36.5187C30.2143 34.783 30.2537 31.684 30.2985 25.8184L30.2985 25.8173L30.4105 14.5506L30.4154 14.0556H30.9104H33.9104H36.9328H37.4356L37.4328 14.5583L37.3657 26.936ZM4.5 26.8889V52.5H30.306H56.1119V26.8889V1.27777H30.306H4.5V26.8889Z" stroke="#FCA311"/>
</g>
<defs>
<filter id="filter0_d" x="0" y="0.777771" width="60.6119" height="60.2222" filterUnits="userSpaceOnUse" color-interpolation-filters="sRGB">
<feFlood flood-opacity="0" result="BackgroundImageFix"/>
<feColorMatrix in="SourceAlpha" type="matrix" values="0 0 0 0 0 0 0 0 0 0 0 0 0 0 0 0 0 0 127 0"/>
<feOffset dy="4"/>
<feGaussianBlur stdDeviation="2"/>
<feColorMatrix type="matrix" values="0 0 0 0 0 0 0 0 0 0 0 0 0 0 0 0 0 0 0.25 0"/>
<feBlend mode="normal" in2="BackgroundImageFix" result="effect1_dropShadow"/>
<feBlend mode="normal" in="SourceGraphic" in2="effect1_dropShadow" result="shape"/>
</filter>
</defs>
</svg>
