<svg width="44" height="44" viewBox="0 0 44 44" fill="none" xmlns="http://www.w3.org/2000/svg">
<circle cx="22" cy="22" r="22" fill="#FCA311"/>
<path d="M21.999 17.377C19.445 17.377 17.376 19.447 17.376 22C17.376 24.554 19.445 26.624 21.999 26.624C24.551 26.624 26.622 24.554 26.622 22C26.622 19.447 24.551 17.377 21.999 17.377ZM21.999 25.004C20.34 25.004 18.995 23.659 18.995 22.001C18.995 20.342 20.34 18.998 21.999 18.998C23.658 18.998 25.001 20.342 25.001 22.001C25.001 23.659 23.658 25.004 21.999 25.004Z" fill="#111111"/>
<path d="M26.806 18.285C27.4014 18.285 27.884 17.8024 27.884 17.207C27.884 16.6116 27.4014 16.129 26.806 16.129C26.2106 16.129 25.728 16.6116 25.728 17.207C25.728 17.8024 26.2106 18.285 26.806 18.285Z" fill="#111111"/>
<path d="M30.533 16.111C30.064 14.902 29.109 13.946 27.9 13.479C27.201 13.216 26.462 13.075 25.714 13.059C24.751 13.017 24.446 13.005 22.004 13.005C19.562 13.005 19.249 13.005 18.294 13.059C17.548 13.074 16.809 13.215 16.11 13.479C14.9 13.946 13.945 14.902 13.477 16.111C13.214 16.811 13.073 17.549 13.058 18.297C13.015 19.259 13.002 19.564 13.002 22.007C13.002 24.449 13.002 24.76 13.058 25.717C13.073 26.465 13.214 27.203 13.477 27.904C13.946 29.112 14.901 30.068 16.111 30.536C16.807 30.808 17.546 30.962 18.296 30.986C19.259 31.028 19.564 31.041 22.006 31.041C24.448 31.041 24.761 31.041 25.716 30.986C26.463 30.971 27.202 30.829 27.902 30.567C29.111 30.098 30.066 29.143 30.535 27.934C30.798 27.234 30.939 26.496 30.954 25.748C30.997 24.786 31.01 24.481 31.01 22.038C31.01 19.595 31.01 19.285 30.954 18.328C30.941 17.57 30.801 16.819 30.533 16.111ZM29.315 25.643C29.308 26.219 29.204 26.79 29.004 27.331C28.699 28.118 28.078 28.74 27.292 29.042C26.757 29.241 26.193 29.345 25.622 29.353C24.672 29.397 24.404 29.408 21.968 29.408C19.53 29.408 19.281 29.408 18.313 29.353C17.744 29.346 17.178 29.241 16.644 29.042C15.855 28.741 15.23 28.119 14.925 27.331C14.729 26.797 14.623 26.232 14.614 25.662C14.571 24.712 14.561 24.444 14.561 22.008C14.561 19.571 14.561 19.322 14.614 18.353C14.621 17.777 14.725 17.207 14.925 16.666C15.23 15.877 15.855 15.256 16.644 14.954C17.178 14.756 17.744 14.651 18.313 14.643C19.264 14.6 19.531 14.588 21.968 14.588C24.405 14.588 24.655 14.588 25.622 14.643C26.193 14.65 26.757 14.755 27.292 14.954C28.078 15.257 28.699 15.879 29.004 16.666C29.2 17.2 29.306 17.765 29.315 18.335C29.358 19.286 29.369 19.553 29.369 21.99C29.369 24.426 29.369 24.688 29.326 25.644H29.315V25.643Z" fill="#111111"/>
</svg>
