<svg width="44" height="44" viewBox="0 0 44 44" fill="none" xmlns="http://www.w3.org/2000/svg">
<circle cx="22" cy="22" r="22" fill="#FCA311"/>
<path d="M14.983 17.197C16.1914 17.197 17.171 16.2174 17.171 15.009C17.171 13.8006 16.1914 12.821 14.983 12.821C13.7746 12.821 12.795 13.8006 12.795 15.009C12.795 16.2174 13.7746 17.197 14.983 17.197Z" fill="black"/>
<path d="M19.237 18.855V30.994H23.006V24.991C23.006 23.407 23.304 21.873 25.268 21.873C27.205 21.873 27.229 23.684 27.229 25.091V30.995H31V24.338C31 21.068 30.296 18.555 26.474 18.555C24.639 18.555 23.409 19.562 22.906 20.515H22.855V18.855H19.237ZM13.095 18.855H16.87V30.994H13.095V18.855Z" fill="black"/>
</svg>
