<svg width="60" height="60" viewBox="0 0 60 60" fill="none" xmlns="http://www.w3.org/2000/svg">
<path d="M3.58209 29.8889V56H29.8881H56.194V29.8889V3.77777H29.8881H3.58209V29.8889ZM36.4478 29.9333C36.3806 39.0889 36.291 42.5556 36.0896 43.1556C35.2836 45.5333 33.291 47.2222 30.6269 47.8C27.8955 48.4 21.806 48 20.4179 47.1556C20.2164 47 20.3507 46.3556 21.0672 44.2889L21.9851 41.6L22.7015 41.8889C25.0299 42.8667 28.3657 42.9778 29.3284 42.1111C30.2239 41.3111 30.291 40.5333 30.3806 28.8222L30.4925 17.5556H33.4925H36.5149L36.4478 29.9333Z" fill="#FCA311"/>
</svg>
