<svg width="568" height="433" viewBox="0 0 568 433" fill="none" xmlns="http://www.w3.org/2000/svg">
<path fill-rule="evenodd" clip-rule="evenodd" d="M279.61 32.4411C320.231 38.7953 359.99 34.3486 399.013 47.308C454.521 65.7416 523.626 72.1682 552.526 123.074C581.89 174.799 561.799 241.191 540.647 296.79C520.278 350.327 490.038 407.887 436.49 428.07C385.233 447.389 333.769 403.326 279.61 395.177C236.911 388.752 194.249 400.124 153.614 385.506C100.266 366.313 37.0817 349.836 12.0363 298.916C-13.5467 246.903 6.39062 183.801 27.9346 129.985C48.3869 78.8955 78.3663 25.0383 129.63 5.16956C178.204 -13.6565 228.148 24.3912 279.61 32.4411Z" fill="#FCA311"/>
</svg>
