<svg width="1366" height="364" viewBox="0 0 1366 364" fill="none" xmlns="http://www.w3.org/2000/svg">
<path fill-rule="evenodd" clip-rule="evenodd" d="M0 246L5 232C9 219 19 191 28 198C37 205 46 246 56 232C65 219 74 150 84 130C93 109 102 137 112 130C121 123 130 82 139 89C149 96 158 150 167 164C177 178 186 150 195 178C204 205 214 287 223 308C232 328 242 287 251 287C260 287 269 328 279 349C288 369 297 369 307 342C316 314 325 260 335 226C344 191 353 178 362 178C372 178 381 191 390 212C400 232 409 260 418 239C427 219 437 150 446 157C455 164 465 246 474 294C483 342 493 355 502 355C511 355 520 342 530 328C539 314 548 301 558 267C567 232 576 178 585 171C595 164 604 205 613 246C623 287 632 328 641 321C650 314 660 260 669 198C678 137 688 68 697 48C706 27 716 55 725 103C734 150 743 219 753 226C762 232 771 178 781 185C790 191 799 260 808 239C818 219 827 109 836 68C846 27 855 55 864 109C873 164 883 246 892 280C901 314 911 301 920 246C929 191 939 96 948 109C957 123 966 246 976 287C985 328 994 287 1004 260C1013 232 1022 219 1031 226C1041 232 1050 260 1059 246C1069 232 1078 178 1087 150C1097 123 1106 123 1115 116C1124 109 1134 96 1143 96C1152 96 1162 109 1171 123C1180 137 1189 150 1199 185C1208 219 1217 273 1227 301C1236 328 1245 328 1254 273C1264 219 1273 109 1282 103C1292 96 1301 191 1310 205C1320 219 1329 150 1338 137C1347 123 1357 164 1361 185L1366 205V0H1361C1357 0 1347 0 1338 0C1329 0 1320 0 1310 0C1301 0 1292 0 1282 0C1273 0 1264 0 1254 0C1245 0 1236 0 1227 0C1217 0 1208 0 1199 0C1189 0 1180 0 1171 0C1162 0 1152 0 1143 0C1134 0 1124 0 1115 0C1106 0 1097 0 1087 0C1078 0 1069 0 1059 0C1050 0 1041 0 1031 0C1022 0 1013 0 1004 0C994 0 985 0 976 0C966 0 957 0 948 0C939 0 929 0 920 0C911 0 901 0 892 0C883 0 873 0 864 0C855 0 846 0 836 0C827 0 818 0 808 0C799 0 790 0 781 0C771 0 762 0 753 0C743 0 734 0 725 0C716 0 706 0 697 0C688 0 678 0 669 0C660 0 650 0 641 0C632 0 623 0 613 0C604 0 595 0 585 0C576 0 567 0 558 0C548 0 539 0 530 0C520 0 511 0 502 0C493 0 483 0 474 0C465 0 455 0 446 0C437 0 427 0 418 0C409 0 400 0 390 0C381 0 372 0 362 0C353 0 344 0 335 0C325 0 316 0 307 0C297 0 288 0 279 0C269 0 260 0 251 0C242 0 232 0 223 0C214 0 204 0 195 0C186 0 177 0 167 0C158 0 149 0 139 0C130 0 121 0 112 0C102 0 93 0 84 0C74 0 65 0 56 0C46 0 37 0 28 0C19 0 9 0 5 0H0V246Z" fill="#FCA311"/>
</svg>
